<?xml version="1.0" standalone="no"?>
<!DOCTYPE svg PUBLIC "-//W3C//DTD SVG 20010904//EN"
 "http://www.w3.org/TR/2001/REC-SVG-20010904/DTD/svg10.dtd">
<svg version="1.0" xmlns="http://www.w3.org/2000/svg"
 width="208.000000pt" height="242.000000pt" viewBox="0 0 208.000000 242.000000"
 preserveAspectRatio="xMidYMid meet">

<g transform="translate(0.000000,242.000000) scale(0.100000,-0.100000)"
fill="#000000" stroke="none">
<path d="M944 2323 c-14 -15 -16 -30 -11 -110 5 -78 4 -93 -8 -93 -36 0 -218
-67 -305 -111 -239 -123 -319 -230 -207 -279 23 -10 61 -21 85 -25 23 -4 42
-10 42 -14 0 -4 -21 -28 -47 -53 -99 -96 -210 -141 -335 -137 l-73 2 3 -29
c12 -99 83 -180 210 -240 2 -1 -10 -28 -26 -60 -39 -78 -59 -139 -72 -219 -24
-153 47 -316 164 -377 l39 -20 -6 30 c-3 16 -3 41 1 55 l7 25 39 -32 38 -33
-50 -36 c-82 -61 -104 -146 -47 -183 36 -23 21 -44 -31 -44 -79 0 -110 -62
-57 -112 38 -35 126 -82 198 -107 58 -19 91 -20 585 -23 l525 -3 81 27 c153
52 191 102 117 152 -21 14 -43 26 -50 26 -7 0 -13 5 -13 10 0 6 22 10 49 10
63 0 98 13 139 53 39 37 52 59 62 103 l7 31 -126 6 c-123 5 -161 12 -161 27 0
4 22 21 48 37 59 37 96 84 112 142 15 55 15 205 0 275 -11 53 -10 54 20 84 32
32 40 62 16 62 -31 0 -27 23 10 61 21 21 36 40 33 42 -2 2 -25 11 -50 21 -74
27 -135 100 -206 246 -57 116 -119 206 -163 237 -11 8 -45 26 -76 42 l-57 28
38 19 c62 29 115 86 115 123 0 28 -7 36 -62 71 -66 43 -150 73 -235 85 -58 8
-60 10 -43 80 13 54 -3 103 -37 111 -37 10 -72 -11 -79 -46 -8 -39 -15 -38
-39 7 -17 31 -66 73 -87 73 -4 0 -14 -8 -24 -17z m70 -34 c14 -17 33 -55 42
-84 8 -30 19 -57 23 -59 4 -3 13 22 19 56 17 92 55 123 88 73 15 -24 15 -79
-2 -136 -2 -9 7 -28 20 -42 35 -38 43 -83 19 -116 -68 -91 -232 -94 -301 -6
-26 33 -15 78 28 118 33 29 95 38 118 15 31 -31 -1 -94 -42 -82 l-21 6 22 -16
c12 -9 37 -19 55 -22 31 -6 32 -5 17 11 -12 12 -15 29 -11 60 4 37 1 45 -18
55 -13 7 -42 10 -66 7 -49 -5 -45 -12 -58 106 -10 85 22 111 68 56z m-110
-216 c-8 -16 -19 -40 -24 -55 -7 -20 -16 -28 -33 -28 -28 0 -164 -43 -210 -66
-18 -9 -63 -37 -100 -62 -68 -45 -98 -77 -74 -80 7 -1 45 -4 85 -8 71 -7 72
-7 55 -26 -10 -11 14 -1 52 22 62 39 80 44 199 62 223 33 442 14 579 -50 112
-52 168 -116 249 -282 33 -69 71 -138 83 -155 12 -16 21 -36 19 -43 -1 -7 0
-8 2 -3 3 5 30 -6 61 -25 31 -19 64 -34 72 -34 10 0 2 -14 -22 -38 -42 -43
-46 -58 -17 -67 28 -9 25 -22 -10 -55 l-29 -28 15 -73 c10 -47 14 -106 12
-160 -6 -120 -31 -169 -122 -231 l-68 -47 -42 21 c-65 33 -126 86 -126 111 0
41 -28 66 -103 89 -67 21 -87 23 -292 20 -174 -2 -230 1 -272 13 -29 9 -53 21
-53 27 0 6 -3 9 -6 6 -6 -7 39 -82 70 -116 31 -35 74 -54 117 -54 37 1 37 0
27 -28 -27 -79 -141 -135 -263 -128 -41 2 -69 0 -63 -3 6 -4 3 -9 -9 -13 -31
-10 -49 -51 -35 -80 23 -51 150 -60 246 -18 l46 21 -15 -29 c-25 -48 -20 -70
15 -70 55 0 128 56 164 125 15 28 16 28 16 7 0 -67 59 -85 104 -32 25 31 34
60 38 135 l3 40 65 13 c76 15 187 5 182 -17 -1 -7 2 -10 8 -6 15 9 108 -93
133 -147 19 -42 26 -48 53 -48 20 0 39 -9 54 -25 l23 -25 -22 0 c-12 0 -38 -7
-59 -15 -29 -13 -34 -18 -22 -25 8 -5 35 -10 58 -10 64 0 125 -41 106 -71 -10
-17 -101 -58 -176 -79 -70 -20 -93 -21 -553 -19 -264 2 -505 6 -535 11 -67 9
-231 88 -259 124 -24 30 -15 59 22 73 31 12 120 -2 153 -24 16 -10 40 -25 54
-34 17 -11 7 7 -33 59 -32 41 -56 81 -55 89 2 8 14 18 28 22 21 6 22 7 5 8
-25 1 -45 -17 -45 -41 0 -24 -15 -23 -40 2 -34 34 -26 77 23 124 24 22 56 50
72 60 l28 19 -29 21 c-16 11 -41 33 -55 49 l-26 28 -11 -26 c-7 -14 -12 -39
-12 -55 0 -17 -4 -30 -8 -30 -24 0 -95 78 -123 136 -60 122 -51 257 31 431
l38 82 -54 26 c-65 32 -127 100 -148 162 -9 26 -16 50 -16 55 0 4 19 5 43 2
100 -14 262 46 346 128 50 49 76 86 68 94 -3 4 -36 13 -73 20 -150 32 -139 92
35 206 94 62 183 104 291 139 109 36 113 36 94 2z m414 12 c74 -18 168 -63
200 -98 19 -20 22 -29 13 -45 -15 -28 -80 -82 -117 -98 -57 -24 -70 -16 -26
16 23 16 46 38 51 49 15 27 -21 54 -104 76 -36 10 -65 23 -65 29 0 7 -9 28
-19 49 -22 42 -21 43 67 22z m-397 -131 c73 -80 199 -84 286 -9 23 19 52 35
65 35 40 0 128 -30 128 -44 0 -28 -87 -85 -132 -87 -13 -1 -57 4 -98 11 -86
14 -165 9 -397 -26 -188 -28 -216 -29 -233 -10 -9 12 -4 20 32 42 89 57 234
110 304 113 11 1 31 -11 45 -25z m776 -1475 c-10 -16 -13 -16 -34 -2 -22 14
-22 16 -6 28 25 18 55 -1 40 -26z m138 -27 c17 -9 16 -11 -2 -29 -11 -11 -23
-27 -25 -34 -3 -10 -13 -6 -37 14 -18 15 -37 27 -42 27 -5 0 5 15 23 33 30 30
34 31 49 16 9 -9 25 -21 34 -27z m94 -8 c-9 -11 -15 -12 -25 -3 -11 9 -12 15
-3 25 9 11 15 12 25 3 11 -9 12 -15 3 -25z"/>
<path d="M1449 1655 c17 -33 31 -51 31 -40 0 6 -10 21 -21 35 -13 17 -17 18
-10 5z"/>
<path d="M1031 1619 c-6 -18 -11 -37 -10 -43 0 -6 7 7 15 28 8 22 12 41 10 43
-2 2 -9 -10 -15 -28z"/>
<path d="M1480 1595 c0 -5 5 -17 10 -25 5 -8 10 -10 10 -5 0 6 -5 17 -10 25
-5 8 -10 11 -10 5z"/>
<path d="M872 1565 c-17 -37 -14 -45 4 -12 9 16 14 31 11 33 -2 2 -9 -7 -15
-21z"/>
<path d="M1530 1562 c0 -28 -25 -79 -53 -110 l-21 -22 25 -17 c32 -22 131
-122 149 -151 14 -22 15 -20 16 30 0 31 10 73 22 101 20 45 18 59 -5 36 -6 -6
-25 -9 -44 -7 -30 3 -35 8 -47 48 -7 25 -15 55 -16 68 -5 34 -26 53 -26 24z"/>
<path d="M1011 1534 c0 -11 3 -14 6 -6 3 7 2 16 -1 19 -3 4 -6 -2 -5 -13z"/>
<path d="M1560 1526 c0 -2 8 -10 18 -17 15 -13 16 -12 3 4 -13 16 -21 21 -21
13z"/>
<path d="M846 1505 c-9 -26 -7 -32 5 -12 6 10 9 21 6 23 -2 3 -7 -2 -11 -11z"/>
<path d="M989 1483 c-8 -10 -9 -14 -2 -10 8 5 13 -7 16 -40 4 -45 4 -44 4 10
0 31 -1 57 -2 57 -2 0 -9 -8 -16 -17z"/>
<path d="M1356 1474 c-10 -26 -7 -29 8 -9 12 17 17 14 61 -43 52 -67 75 -86
30 -24 -36 48 -77 92 -86 92 -4 0 -10 -7 -13 -16z"/>
<path d="M1342 1415 c0 -16 2 -22 5 -12 2 9 2 23 0 30 -3 6 -5 -1 -5 -18z"/>
<path d="M1024 1370 c-12 -5 -25 -14 -29 -20 -6 -10 50 13 64 26 7 7 -13 3
-35 -6z"/>
<path d="M1338 1350 c2 -16 6 -30 8 -30 2 0 4 14 4 30 0 17 -4 30 -8 30 -5 0
-7 -13 -4 -30z"/>
<path d="M1381 1357 c2 -1 13 -9 24 -17 19 -14 19 -14 6 3 -7 9 -18 17 -24 17
-6 0 -8 -1 -6 -3z"/>
<path d="M1495 1320 c9 -16 18 -30 21 -30 2 0 -2 14 -11 30 -9 17 -18 30 -21
30 -2 0 2 -13 11 -30z"/>
<path d="M1356 1290 c4 -14 7 -37 8 -52 0 -16 4 -28 9 -28 12 0 8 36 -9 71 -9
21 -12 24 -8 9z"/>
<path d="M1065 1272 c17 -19 39 -38 50 -44 11 -6 16 -7 10 -2 -5 5 -28 25 -50
44 l-40 35 30 -33z"/>
<path d="M1163 1265 c-3 -9 -3 -19 1 -22 3 -4 6 1 6 10 0 20 7 21 40 2 14 -8
30 -14 35 -14 11 0 -55 38 -68 39 -4 0 -10 -7 -14 -15z"/>
<path d="M1791 1264 c0 -11 3 -14 6 -6 3 7 2 16 -1 19 -3 4 -6 -2 -5 -13z"/>
<path d="M386 1235 c-9 -26 -7 -32 5 -12 6 10 9 21 6 23 -2 3 -7 -2 -11 -11z"/>
<path d="M1592 1225 c0 -16 2 -22 5 -12 2 9 2 23 0 30 -3 6 -5 -1 -5 -18z"/>
<path d="M1270 1230 c8 -5 22 -9 30 -9 10 0 8 3 -5 9 -27 12 -43 12 -25 0z"/>
<path d="M1170 1223 c0 -7 -7 -10 -17 -7 -17 5 -17 5 0 -6 24 -15 39 -9 27 10
-6 9 -10 10 -10 3z"/>
<path d="M1328 1213 c7 -3 16 -2 19 1 4 3 -2 6 -13 5 -11 0 -14 -3 -6 -6z"/>
<path d="M1812 1190 c0 -14 2 -19 5 -12 2 6 2 18 0 25 -3 6 -5 1 -5 -13z"/>
<path d="M1026 1174 c-21 -12 -46 -14 -100 -10 -69 5 -70 5 -31 -8 86 -28 107
-28 145 4 38 32 32 38 -14 14z"/>
<path d="M356 1154 c-4 -14 -5 -28 -3 -31 3 -2 8 8 11 23 4 14 5 28 3 31 -3 2
-8 -8 -11 -23z"/>
<path d="M1395 1135 c45 -37 69 -40 110 -15 46 28 44 32 -6 15 -37 -13 -44
-13 -79 5 -53 27 -61 25 -25 -5z"/>
<path d="M1821 1144 c0 -11 3 -14 6 -6 3 7 2 16 -1 19 -3 4 -6 -2 -5 -13z"/>
<path d="M342 1080 c0 -14 2 -19 5 -12 2 6 2 18 0 25 -3 6 -5 1 -5 -13z"/>
<path d="M333 980 c0 -36 2 -50 4 -32 2 17 2 47 0 65 -2 17 -4 3 -4 -33z"/>
<path d="M1205 1014 c-38 -14 -39 -14 -5 -7 19 3 50 6 68 6 20 0 28 3 20 9
-17 10 -35 9 -83 -8z"/>
<path d="M751 924 c0 -11 3 -14 6 -6 3 7 2 16 -1 19 -3 4 -6 -2 -5 -13z"/>
<path d="M341 874 c0 -11 3 -14 6 -6 3 7 2 16 -1 19 -3 4 -6 -2 -5 -13z"/>
<path d="M1672 790 c0 -19 2 -27 5 -17 2 9 2 25 0 35 -3 9 -5 1 -5 -18z"/>
<path d="M1661 738 c0 -9 -4 -25 -7 -35 -5 -17 -5 -17 6 0 6 10 9 25 7 35 -4
15 -5 15 -6 0z"/>
<path d="M1595 700 c-3 -5 -1 -10 4 -10 6 0 11 5 11 10 0 6 -2 10 -4 10 -3 0
-8 -4 -11 -10z"/>
<path d="M1612 650 l-1 -35 19 24 c11 13 20 28 20 35 -1 6 -7 0 -14 -14 l-14
-24 -5 24 c-3 19 -5 17 -5 -10z"/>
<path d="M529 578 c17 -22 68 -54 101 -62 14 -4 3 5 -25 20 -27 14 -59 34 -70
43 -18 15 -19 15 -6 -1z"/>
<path d="M1502 555 c0 -5 6 -26 13 -45 7 -19 14 -28 14 -20 0 8 -6 29 -14 45
-7 17 -13 26 -13 20z"/>
<path d="M500 426 c0 -2 7 -7 16 -10 8 -3 12 -2 9 4 -6 10 -25 14 -25 6z"/>
<path d="M1564 330 c21 -88 32 -104 55 -76 9 11 8 18 -4 30 -9 9 -20 16 -25
16 -6 0 -30 74 -30 96 0 4 10 -1 23 -12 20 -17 20 -16 -2 9 -14 15 -27 27 -31
27 -4 0 3 -40 14 -90z"/>
<path d="M560 385 c13 -14 26 -25 28 -25 3 0 -5 11 -18 25 -13 14 -26 25 -28
25 -3 0 5 -11 18 -25z"/>
<path d="M1600 350 c0 -5 5 -10 11 -10 5 0 7 5 4 10 -3 6 -8 10 -11 10 -2 0
-4 -4 -4 -10z"/>
<path d="M841 277 c0 -10 -8 -31 -16 -47 -9 -17 -13 -30 -11 -30 11 0 37 62
33 78 -4 15 -5 15 -6 -1z"/>
<path d="M751 244 c0 -11 3 -14 6 -6 3 7 2 16 -1 19 -3 4 -6 -2 -5 -13z"/>
<path d="M570 234 c-17 -19 4 -44 37 -44 19 0 24 4 21 21 -4 28 -42 43 -58 23z"/>
<path d="M741 204 c0 -11 3 -14 6 -6 3 7 2 16 -1 19 -3 4 -6 -2 -5 -13z"/>
</g>
</svg>
